{"title":"San.Andreas.2015.720p.WEB-DL.XviD.AC3-RARBG","uid":12392025,"size":3596923778,"categoryP":"video","categoryS":"hd___movies","magnet":"?xt=urn:btih:6456b72ed695c8b46e2c2be5cc3984f6fc6e62bb&amp;dn=San.Andreas.2015.720p.WEB-DL.XviD.AC3-RARBG&amp;tr=udp%3A%2F%2Ftracker.openbittorrent.com%3A80&amp;tr=udp%3A%2F%2Fopen.demonii.com%3A1337&amp;tr=udp%3A%2F%2Ftracker.coppersurfer.tk%3A6969&amp;tr=udp%3A%2F%2Fexodus.desync.com%3A6969","seeders":1,"leechers":0,"uploader":"vickey1992","files":5,"time":1441901352,"description":"Video\nID                                       : 0\nFormat                                   : MPEG-4 Visual\nFormat profile                           : Simple@L5\nFormat settings, BVOP                    : No\nFormat settings, QPel                    : No\nFormat settings, GMC                     : No warppoints\nFormat settings, Matrix                  : Default (H.263)\nCodec ID                                 : XVID\nCodec ID/Hint                            : XviD\nDuration                                 : 1h 54mn\nBit rate                                 : 3 795 Kbps\nWidth                                    : 1 280 pixels\nHeight                                   : 532 pixels\nDisplay aspect ratio                     : 2.40:1\nFrame rate                               : 23.976 fps\nColor space                              : YUV\nChroma subsampling                       : 4:2:0\nBit depth                                : 8 bits\nScan type                                : Progressive\nCompression mode                         : Lossy\nBits/(Pixel*Frame)                       : 0.232\nStream size                              : 3.03 GiB (91%)\nWriting library                          : Lavc56.13.100\n\nAudio\nID                                       : 1\nFormat                                   : AC-3\nFormat/Info                              : Audio Coding 3\nMode extension                           : CM (complete main)\nFormat settings, Endianness              : Big\nCodec ID                                 : 2000\nDuration                                 : 1h 54mn\nBit rate mode                            : Constant\nBit rate                                 : 384 Kbps\nChannel(s)                               : 6 channels\nChannel positions                        : Front: L C R, Side: L R, LFE\nSampling rate                            : 48.0 KHz\nCompression mode                         : Lossy\nStream size                              : 314 MiB (9%)\nAlignment                                : Aligned on interleaves\nInterleave, duration                     : 42 ms (1.00 video frame)\nInterleave, preload duration             : 512 ms","torrent":{"xt":"urn:btih:6456b72ed695c8b46e2c2be5cc3984f6fc6e62bb","amp;dn":"San.Andreas.2015.720p.WEB-DL.XviD.AC3-RARBG","amp;tr":["udp%3A%2F%2Ftracker.openbittorrent.com%3A80","udp%3A%2F%2Fopen.demonii.com%3A1337","udp%3A%2F%2Ftracker.coppersurfer.tk%3A6969","udp%3A%2F%2Fexodus.desync.com%3A6969"],"infoHash":"6456b72ed695c8b46e2c2be5cc3984f6fc6e62bb","infoHashBuffer":{"type":"Buffer","data":[100,86,183,46,214,149,200,180,110,44,43,229,204,57,132,246,252,110,98,187]},"announce":[],"urlList":[]}}